# xmcd CD database file
#
# Track frame offsets:
#	150
#	15712
#	30268
#	48510
#
# Disc length: 915 seconds
#
# Revision: 2
# Processed by: cddbd v1.5.2PL0 Copyright (c) Steve Scherf et al.
# Submitted via: CDex 1.51
#
DISCID=24039104
DTITLE=Mark Alan - The Broken EP
DYEAR=2005
DGENRE=Rhythmic Soul
TTITLE0=Fading (How Do I)
TTITLE1=More Than Yesterday
TTITLE2=Fragmented Dreams
TTITLE3=Broken
EXTD=YEAR: 2005
EXTT0=
EXTT1=
EXTT2=
EXTT3=
PLAYORDER=
